<mxfile host="app.diagrams.net" modified="2022-09-05T02:04:41.775Z" agent="5.0 (Windows)" etag="125_7TcMZXzbTbf7x1sv" version="20.2.0" type="github">
  <diagram id="ijRqrtXr-WgqbJFnjIY2" name="第 1 页">
    <mxGraphModel dx="1102" dy="572" grid="1" gridSize="10" guides="1" tooltips="1" connect="1" arrows="1" fold="1" page="1" pageScale="1" pageWidth="827" pageHeight="1169" math="0" shadow="0">
      <root>
        <mxCell id="0" />
        <mxCell id="1" parent="0" />
        <mxCell id="qKOhyIc6geSTypuf5OM2-1" value="miRNA" style="rounded=1;whiteSpace=wrap;html=1;" vertex="1" parent="1">
          <mxGeometry x="250" y="20" width="140" height="30" as="geometry" />
        </mxCell>
        <mxCell id="qKOhyIc6geSTypuf5OM2-2" value="CNA" style="rounded=1;whiteSpace=wrap;html=1;" vertex="1" parent="1">
          <mxGeometry x="190" y="70" width="140" height="30" as="geometry" />
        </mxCell>
        <mxCell id="qKOhyIc6geSTypuf5OM2-3" value="mutation" style="rounded=1;whiteSpace=wrap;html=1;" vertex="1" parent="1">
          <mxGeometry x="343.5" y="70" width="140" height="30" as="geometry" />
        </mxCell>
        <mxCell id="qKOhyIc6geSTypuf5OM2-5" value="pathyway" style="rounded=1;whiteSpace=wrap;html=1;" vertex="1" parent="1">
          <mxGeometry x="500" y="70" width="140" height="30" as="geometry" />
        </mxCell>
        <mxCell id="qKOhyIc6geSTypuf5OM2-6" value="mRNA" style="rounded=1;whiteSpace=wrap;html=1;" vertex="1" parent="1">
          <mxGeometry x="440" y="20" width="140" height="30" as="geometry" />
        </mxCell>
        <mxCell id="qKOhyIc6geSTypuf5OM2-7" value="methylation" style="rounded=1;whiteSpace=wrap;html=1;" vertex="1" parent="1">
          <mxGeometry x="250" y="120" width="140" height="30" as="geometry" />
        </mxCell>
        <mxCell id="qKOhyIc6geSTypuf5OM2-8" value="proteome" style="rounded=1;whiteSpace=wrap;html=1;" vertex="1" parent="1">
          <mxGeometry x="440" y="120" width="140" height="30" as="geometry" />
        </mxCell>
        <mxCell id="qKOhyIc6geSTypuf5OM2-9" value="" style="strokeWidth=2;html=1;shape=mxgraph.flowchart.annotation_2;align=left;labelPosition=right;pointerEvents=1;rotation=-90;" vertex="1" parent="1">
          <mxGeometry x="380" y="80" width="80" height="235" as="geometry" />
        </mxCell>
        <mxCell id="qKOhyIc6geSTypuf5OM2-27" style="edgeStyle=orthogonalEdgeStyle;rounded=0;orthogonalLoop=1;jettySize=auto;html=1;exitX=0.5;exitY=1;exitDx=0;exitDy=0;entryX=0.5;entryY=0;entryDx=0;entryDy=0;" edge="1" parent="1" source="qKOhyIc6geSTypuf5OM2-11" target="qKOhyIc6geSTypuf5OM2-12">
          <mxGeometry relative="1" as="geometry" />
        </mxCell>
        <mxCell id="qKOhyIc6geSTypuf5OM2-11" value="Autoencoder" style="rounded=0;whiteSpace=wrap;html=1;" vertex="1" parent="1">
          <mxGeometry x="363.5" y="230" width="116.5" height="30" as="geometry" />
        </mxCell>
        <mxCell id="qKOhyIc6geSTypuf5OM2-28" style="edgeStyle=orthogonalEdgeStyle;rounded=0;orthogonalLoop=1;jettySize=auto;html=1;exitX=0.5;exitY=1;exitDx=0;exitDy=0;entryX=0.5;entryY=0;entryDx=0;entryDy=0;" edge="1" parent="1" source="qKOhyIc6geSTypuf5OM2-12" target="qKOhyIc6geSTypuf5OM2-22">
          <mxGeometry relative="1" as="geometry" />
        </mxCell>
        <mxCell id="qKOhyIc6geSTypuf5OM2-12" value="Unsupervised clustering" style="rounded=0;whiteSpace=wrap;html=1;" vertex="1" parent="1">
          <mxGeometry x="363.5" y="300" width="116.5" height="30" as="geometry" />
        </mxCell>
        <mxCell id="qKOhyIc6geSTypuf5OM2-14" value="" style="shape=curlyBracket;whiteSpace=wrap;html=1;rounded=1;direction=south;" vertex="1" parent="1">
          <mxGeometry x="301.75" y="410" width="240" height="30" as="geometry" />
        </mxCell>
        <mxCell id="qKOhyIc6geSTypuf5OM2-16" value="prognosis" style="text;html=1;strokeColor=none;fillColor=none;align=center;verticalAlign=middle;whiteSpace=wrap;rounded=0;" vertex="1" parent="1">
          <mxGeometry x="510.87" y="370" width="60" height="30" as="geometry" />
        </mxCell>
        <mxCell id="qKOhyIc6geSTypuf5OM2-18" value="immune response" style="text;html=1;strokeColor=none;fillColor=none;align=center;verticalAlign=middle;whiteSpace=wrap;rounded=0;" vertex="1" parent="1">
          <mxGeometry x="500" y="535" width="120" height="30" as="geometry" />
        </mxCell>
        <mxCell id="qKOhyIc6geSTypuf5OM2-22" value="Clustering results" style="rounded=0;whiteSpace=wrap;html=1;" vertex="1" parent="1">
          <mxGeometry x="362.62" y="370" width="118.25" height="40" as="geometry" />
        </mxCell>
        <mxCell id="qKOhyIc6geSTypuf5OM2-24" value="bulid model" style="text;html=1;strokeColor=none;fillColor=none;align=center;verticalAlign=middle;whiteSpace=wrap;rounded=0;" vertex="1" parent="1">
          <mxGeometry x="223.5" y="400" width="80" height="30" as="geometry" />
        </mxCell>
        <mxCell id="qKOhyIc6geSTypuf5OM2-26" value="Immune dataset" style="rounded=1;whiteSpace=wrap;html=1;" vertex="1" parent="1">
          <mxGeometry x="370.87" y="530" width="120" height="40" as="geometry" />
        </mxCell>
        <mxCell id="qKOhyIc6geSTypuf5OM2-30" value="CNA" style="rounded=1;whiteSpace=wrap;html=1;" vertex="1" parent="1">
          <mxGeometry x="223.5" y="440" width="140" height="30" as="geometry" />
        </mxCell>
        <mxCell id="qKOhyIc6geSTypuf5OM2-31" value="mutation" style="rounded=1;whiteSpace=wrap;html=1;" vertex="1" parent="1">
          <mxGeometry x="370.87" y="440" width="140" height="30" as="geometry" />
        </mxCell>
        <mxCell id="qKOhyIc6geSTypuf5OM2-32" value="mRNA" style="rounded=1;whiteSpace=wrap;html=1;" vertex="1" parent="1">
          <mxGeometry x="520" y="440" width="140" height="30" as="geometry" />
        </mxCell>
        <mxCell id="qKOhyIc6geSTypuf5OM2-33" value="" style="endArrow=none;dashed=1;html=1;dashPattern=1 3;strokeWidth=2;rounded=0;" edge="1" parent="1">
          <mxGeometry width="50" height="50" relative="1" as="geometry">
            <mxPoint x="360" y="490" as="sourcePoint" />
            <mxPoint x="490" y="490" as="targetPoint" />
            <Array as="points">
              <mxPoint x="430" y="490" />
            </Array>
          </mxGeometry>
        </mxCell>
        <mxCell id="qKOhyIc6geSTypuf5OM2-34" value="" style="shape=curlyBracket;whiteSpace=wrap;html=1;rounded=1;rotation=-90;" vertex="1" parent="1">
          <mxGeometry x="415.43" y="385.43" width="20.87" height="250" as="geometry" />
        </mxCell>
      </root>
    </mxGraphModel>
  </diagram>
</mxfile>
